# xmcd CD database file
#
# Track frame offsets:
#	150
#	21627
#	38212
#	55952
#	71912
#	86595
#	102332
#	124550
#	139280
#	152885
#	168775
#	189235
#	205882
#	225895
#
# Disc length: 3271 seconds
#
# Revision: 0
# Processed by: cddbd v1.5.2PL0 Copyright (c) Steve Scherf et al.
# Submitted via: CDex 1.70beta2
#
DISCID=bd0cc50e
DTITLE=八代亜紀 - 八代亜紀ゴールデンベスト
DYEAR=1999
DGENRE=ENKA
TTITLE0=あなたに乾杯
TTITLE1=愛の終着駅
TTITLE2=恋歌
TTITLE3=故郷へ・・
TTITLE4=おんな港町
TTITLE5=雨の慕情
TTITLE6=愛を信じたい
TTITLE7=なみだ恋
TTITLE8=もう一度逢いたい
TTITLE9=花水仙
TTITLE10=花束(ブーケ)
TTITLE11=ともしび
TTITLE12=あかんたれ
TTITLE13=舟唄
EXTD=YEAR: 1999
EXTT0=
EXTT1=
EXTT2=
EXTT3=
EXTT4=
EXTT5=
EXTT6=
EXTT7=
EXTT8=
EXTT9=
EXTT10=
EXTT11=
EXTT12=
EXTT13=
PLAYORDER=
